<svg width="1024" height="1024" viewBox="0 0 1024 1024" fill="none" xmlns="http://www.w3.org/2000/svg">
<g clip-path="url(#clip0_4762_656)">
<path d="M700.281 387.999C720.295 387.419 737.118 370.886 737.118 350.872C737.118 330.568 720.295 313.454 700.281 313.454C680.556 313.454 663.442 330.568 663.442 350.872C663.442 370.886 680.556 388.29 700.281 387.999ZM700.281 548.693C720.295 548.113 737.118 531.579 737.118 511.565C737.118 491.261 720.295 474.147 700.281 474.147C680.556 474.147 663.442 491.261 663.442 511.565C663.442 531.579 680.556 548.984 700.281 548.693ZM700.281 709.387C720.295 708.805 737.118 692.273 737.118 672.259C737.118 651.955 720.295 634.841 700.281 634.841C680.556 634.841 663.442 651.955 663.442 672.259C663.442 692.273 680.556 709.675 700.281 709.387ZM823.845 453.553V409.754H191.226V453.553H823.845ZM823.845 614.827V571.029H191.226V614.827H823.845ZM256.199 779H758.002C818.915 779 849.08 749.126 849.08 689.371V334.918C849.08 275.166 818.915 245 758.002 245H256.199C195.576 245 165.12 275.166 165.12 334.918V689.371C165.12 749.126 195.576 779 256.199 779ZM256.779 732.299C227.773 732.299 211.82 716.928 211.82 686.76V337.529C211.82 307.363 227.773 291.7 256.779 291.7H757.422C786.138 291.7 802.383 307.363 802.383 337.529V686.76C802.383 716.928 786.138 732.299 757.422 732.299H256.779Z" fill="black" fill-opacity="0.85"/>
</g>
<defs>
<clipPath id="clip0_4762_656">
<rect width="694.695" height="534" fill="white" transform="translate(165.12 245)"/>
</clipPath>
</defs>
</svg>
